fd_5_states
version=1
nRows=23
nColumns=17
inDegrees=yes

# SIMM Motion File Header:
name fd_5_states
datacolumns 17
datarows 23
otherdata 1
range 0.030000 0.039792
endheader
time	/jointset/r_shoulder/r_shoulder_elev/value	/jointset/r_shoulder/r_shoulder_elev/speed	/jointset/r_elbow/r_elbow_flex/value	/jointset/r_elbow/r_elbow_flex/speed	/forceset/TRIlong/activation	/forceset/TRIlong/fiber_length	/forceset/TRIlat/activation	/forceset/TRIlat/fiber_length	/forceset/TRImed/activation	/forceset/TRImed/fiber_length	/forceset/BIClong/activation	/forceset/BIClong/fiber_length	/forceset/BICshort/activation	/forceset/BICshort/fiber_length	/forceset/BRA/activation	/forceset/BRA/fiber_length
      0.030000	      0.000000	      0.000000	    127.966686	   -383.497898	      0.020000	      0.182174	      0.392914	      0.116164	      0.398118	      0.111172	      0.347803	      0.064092	      0.020000	      0.065967	      0.023985	      0.052952
      0.030061	     -0.000000	     -0.002728	    127.943175	   -383.422910	      0.020006	      0.182167	      0.392292	      0.116156	      0.397483	      0.111164	      0.347293	      0.064109	      0.020674	      0.065981	      0.024389	      0.052953
      0.030123	     -0.000000	     -0.005592	    127.919669	   -383.346393	      0.020006	      0.182159	      0.391672	      0.116148	      0.396849	      0.111156	      0.346785	      0.064126	      0.021554	      0.065989	      0.024621	      0.052955
      0.030429	     -0.000005	     -0.022275	    127.802212	   -382.941825	      0.020006	      0.182121	      0.388593	      0.116110	      0.393706	      0.111118	      0.344263	      0.064215	      0.025773	      0.066011	      0.025741	      0.052970
      0.030893	     -0.000022	     -0.054604	    127.624782	   -382.279507	      0.020006	      0.182064	      0.384009	      0.116052	      0.389026	      0.111060	      0.340502	      0.064357	      0.031635	      0.066029	      0.027312	      0.053015
      0.031508	     -0.000072	     -0.110572	    127.390002	   -381.331535	      0.020006	      0.181989	      0.378063	      0.115977	      0.382956	      0.110985	      0.335614	      0.064549	      0.038558	      0.066048	      0.029188	      0.053126
      0.032123	     -0.000159	     -0.177694	    127.155818	   -380.342747	      0.020006	      0.181914	      0.372260	      0.115904	      0.377035	      0.110912	      0.330836	      0.064743	      0.044651	      0.066069	      0.030856	      0.053169
      0.032588	     -0.000257	     -0.241347	    126.978930	   -379.524046	      0.020006	      0.181857	      0.367961	      0.115849	      0.372647	      0.110857	      0.327289	      0.064889	      0.048787	      0.066089	      0.031996	      0.053250
      0.033054	     -0.000385	     -0.312349	    126.802431	   -378.674706	      0.020006	      0.181800	      0.363739	      0.115795	      0.368341	      0.110803	      0.323801	      0.065036	      0.052561	      0.066116	      0.033039	      0.053292
      0.033598	     -0.000581	     -0.409294	    126.596633	   -377.607170	      0.020006	      0.181733	      0.358900	      0.115733	      0.363405	      0.110740	      0.319797	      0.065207	      0.056564	      0.066159	      0.034148	      0.053390
      0.034142	     -0.000832	     -0.516382	    126.391429	   -376.499957	      0.020006	      0.181667	      0.354162	      0.115671	      0.358574	      0.110678	      0.315870	      0.065377	      0.060175	      0.066221	      0.035151	      0.053438
      0.034579	     -0.001078	     -0.613622	    126.227054	   -375.554341	      0.020006	      0.181614	      0.350428	      0.115621	      0.354766	      0.110628	      0.312770	      0.065514	      0.062823	      0.066284	      0.035885	      0.053519
      0.035017	     -0.001369	     -0.716767	    126.063096	   -374.592776	      0.020006	      0.181561	      0.346755	      0.115572	      0.351021	      0.110579	      0.309718	      0.065651	      0.065268	      0.066359	      0.036563	      0.053560
      0.035611	     -0.001840	     -0.872040	    125.840949	   -373.220096	      0.020006	      0.181489	      0.341859	      0.115506	      0.346030	      0.110512	      0.305642	      0.065836	      0.068296	      0.066471	      0.037401	      0.053673
      0.036205	     -0.002406	     -1.037306	    125.619623	   -371.830427	      0.020006	      0.181418	      0.337070	      0.115440	      0.341150	      0.110446	      0.301650	      0.066021	      0.071019	      0.066591	      0.038152	      0.053722
      0.036602	     -0.002841	     -1.157883	    125.472261	   -370.858539	      0.020006	      0.181370	      0.333930	      0.115396	      0.337951	      0.110402	      0.299029	      0.066144	      0.072686	      0.066675	      0.038611	      0.053798
      0.036998	     -0.003325	     -1.282690	    125.325286	   -369.881934	      0.020006	      0.181322	      0.330836	      0.115353	      0.334798	      0.110358	      0.296442	      0.066268	      0.074242	      0.066761	      0.039037	      0.053837
      0.037566	     -0.004107	     -1.473554	    125.115783	   -368.439993	      0.020006	      0.181254	      0.326487	      0.115291	      0.330368	      0.110296	      0.292804	      0.066443	      0.076289	      0.066887	      0.039595	      0.053930
      0.038011	     -0.004797	     -1.630111	    124.952014	   -367.297064	      0.020006	      0.181201	      0.323138	      0.115242	      0.326957	      0.110247	      0.289997	      0.066581	      0.077762	      0.066988	      0.039995	      0.053979
      0.038456	     -0.005559	     -1.795471	    124.788761	   -366.123412	      0.020006	      0.181148	      0.319843	      0.115194	      0.323601	      0.110198	      0.287233	      0.066718	      0.079127	      0.067091	      0.040364	      0.054055
      0.038901	     -0.006396	     -1.966340	    124.626032	   -364.943579	      0.020006	      0.181094	      0.316599	      0.115146	      0.320297	      0.110149	      0.284508	      0.066855	      0.080393	      0.067195	      0.040704	      0.054105
      0.039347	     -0.007311	     -2.145765	    124.463834	   -363.735421	      0.020006	      0.181042	      0.313406	      0.115098	      0.317047	      0.110101	      0.281824	      0.066991	      0.081568	      0.067301	      0.041018	      0.054181
      0.039792	     -0.008307	     -2.330452	    124.302175	   -362.523111	      0.020006	      0.180989	      0.310263	      0.115050	      0.313847	      0.110053	      0.279178	      0.067128	      0.082660	      0.067408	      0.041308	      0.054231
